HIERARCHY
ROOT Hips
{
	OFFSET 0.00 0.00 0.00
	CHANNELS 6 Xposition Yposition Zposition Zrotation Yrotation Xrotation
	JOINT Spine
	{
		OFFSET	-0.1407	10.0911	-0.9671
		CHANNELS 3 Zrotation Yrotation Xrotation
		JOINT Spine1
		{
			OFFSET	-0.1642	11.7729	-1.1283
			CHANNELS 3 Zrotation Yrotation Xrotation
			JOINT Spine2
			{
				OFFSET	-0.1876	13.4547	-1.2895
				CHANNELS 3 Zrotation Yrotation Xrotation
				JOINT Neck
				{
					OFFSET	-0.2114	19.0802	-1.4506
					CHANNELS 3 Zrotation Yrotation Xrotation
					JOINT Head
					{
						OFFSET	0.0002	9.8684	4.2652
						CHANNELS 3 Zrotation Yrotation Xrotation
						End Site
						{
							OFFSET 0.0001 21.9232 2.1624
						}
					}
				}
				JOINT LeftShoulder
				{
					OFFSET	6.1131	13.3866	-1.3903
					CHANNELS 3 Zrotation Yrotation Xrotation
					JOINT LeftArm
					{
						OFFSET	11.0774	-1.5714	0.1070
						CHANNELS 3 Zrotation Yrotation Xrotation
						JOINT LeftForeArm
						{
							OFFSET	15.2124	-24.9406	2.2224
							CHANNELS 3 Zrotation Yrotation Xrotation
							JOINT LeftHand
							{
								OFFSET	16.3411	-23.1539	7.9444
								CHANNELS 3 Zrotation Yrotation Xrotation
								JOINT LeftHandThumb1
								{
									OFFSET	1.6587	-4.2659	4.2262
									CHANNELS 3 Zrotation Yrotation Xrotation
									JOINT LeftHandThumb2
									{
										OFFSET	1.3435	-2.3509	1.5099
										CHANNELS 3 Zrotation Yrotation Xrotation
										JOINT LeftHandThumb3
										{
											OFFSET	1.6894	-2.6635	0.5225
											CHANNELS 3 Zrotation Yrotation Xrotation
											End Site
											{
												OFFSET 1.2562 -1.9933 0.0223
											}
										}
									}
								}
								JOINT LeftHandIndex1
								{
									OFFSET	7.0276	-8.5988	3.8518
									CHANNELS 3 Zrotation Yrotation Xrotation
									JOINT LeftHandIndex2
									{
										OFFSET	1.2755	-2.1232	0.5899
										CHANNELS 3 Zrotation Yrotation Xrotation
										JOINT LeftHandIndex3
										{
											OFFSET	0.1162	-2.4866	0.3850
											CHANNELS 3 Zrotation Yrotation Xrotation
											End Site
											{
												OFFSET -0.1787 -2.4534 0.3550
											}
										}
									}
								}
								JOINT LeftHandMiddle1
								{
									OFFSET	6.9431	-8.3655	1.8072
									CHANNELS 3 Zrotation Yrotation Xrotation
									JOINT LeftHandMiddle2
									{
										OFFSET	1.4997	-2.6216	0.5100
										CHANNELS 3 Zrotation Yrotation Xrotation
										JOINT LeftHandMiddle3
										{
											OFFSET	-0.1550	-2.1505	0.2073
											CHANNELS 3 Zrotation Yrotation Xrotation
											End Site
											{
												OFFSET -1.0517 -2.6398 0.6489
											}
										}
									}
								}
								JOINT LeftHandRing1
								{
									OFFSET	6.7070	-8.6284	-0.3598
									CHANNELS 3 Zrotation Yrotation Xrotation
									JOINT LeftHandRing2
									{
										OFFSET	0.8682	-2.3017	0.2462
										CHANNELS 3 Zrotation Yrotation Xrotation
										JOINT LeftHandRing3
										{
											OFFSET	-0.2764	-1.5645	0.3912
											CHANNELS 3 Zrotation Yrotation Xrotation
											End Site
											{
												OFFSET -0.8050 -2.5356 0.6184
											}
										}
									}
								}
								JOINT LeftHandPinky1
								{
									OFFSET	5.9610	-8.3072	-2.1979
									CHANNELS 3 Zrotation Yrotation Xrotation
									JOINT LeftHandPinky2
									{
										OFFSET	0.8393	-2.4400	0.0631
										CHANNELS 3 Zrotation Yrotation Xrotation
										JOINT LeftHandPinky3
										{
											OFFSET	-0.1765	-1.4898	0.2233
											CHANNELS 3 Zrotation Yrotation Xrotation
											End Site
											{
												OFFSET -0.5937 -1.6063 0.3463
											}
										}
									}
								}
							}
						}
					}
				}
				JOINT RightShoulder
				{
					OFFSET	-5.1865	13.3866	-1.3903
					CHANNELS 3 Zrotation Yrotation Xrotation
					JOINT RightArm
					{
						OFFSET	-11.0774	-1.5714	0.1070
						CHANNELS 3 Zrotation Yrotation Xrotation
						JOINT RightForeArm
						{
							OFFSET	-15.2124	-24.9406	2.2224
							CHANNELS 3 Zrotation Yrotation Xrotation
							JOINT RightHand
							{
								OFFSET	-16.3411	-23.1539	7.9444
								CHANNELS 3 Zrotation Yrotation Xrotation
								JOINT RightHandThumb1
								{
									OFFSET	-1.6587	-4.2659	4.2262
									CHANNELS 3 Zrotation Yrotation Xrotation
									JOINT RightHandThumb2
									{
										OFFSET	-1.3435	-2.3509	1.5099
										CHANNELS 3 Zrotation Yrotation Xrotation
										JOINT RightHandThumb3
										{
											OFFSET	-1.6894	-2.6635	0.5225
											CHANNELS 3 Zrotation Yrotation Xrotation
											End Site
											{
												OFFSET -1.2562 -1.9933 0.0223
											}
										}
									}
								}
								JOINT RightHandIndex1
								{
									OFFSET	-7.0276	-8.5988	3.8518
									CHANNELS 3 Zrotation Yrotation Xrotation
									JOINT RightHandIndex2
									{
										OFFSET	-1.2755	-2.1232	0.5899
										CHANNELS 3 Zrotation Yrotation Xrotation
										JOINT RightHandIndex3
										{
											OFFSET	-0.1162	-2.4866	0.3850
											CHANNELS 3 Zrotation Yrotation Xrotation
											End Site
											{
												OFFSET 0.1787 -2.4534 0.3550
											}
										}
									}
								}
								JOINT RightHandMiddle1
								{
									OFFSET	-6.9431	-8.3655	1.8072
									CHANNELS 3 Zrotation Yrotation Xrotation
									JOINT RightHandMiddle2
									{
										OFFSET	-1.4997	-2.6216	0.5100
										CHANNELS 3 Zrotation Yrotation Xrotation
										JOINT RightHandMiddle3
										{
											OFFSET	0.1550	-2.1505	0.2073
											CHANNELS 3 Zrotation Yrotation Xrotation
											End Site
											{
												OFFSET 1.0517 -2.6398 0.6489
											}
										}
									}
								}
								JOINT RightHandRing1
								{
									OFFSET	-6.7070	-8.6284	-0.3598
									CHANNELS 3 Zrotation Yrotation Xrotation
									JOINT RightHandRing2
									{
										OFFSET	-0.8682	-2.3017	0.2462
										CHANNELS 3 Zrotation Yrotation Xrotation
										JOINT RightHandRing3
										{
											OFFSET	0.2764	-1.5645	0.3912
											CHANNELS 3 Zrotation Yrotation Xrotation
											End Site
											{
												OFFSET 0.8050 -2.5356 0.6184
											}
										}
									}
								}
								JOINT RightHandPinky1
								{
									OFFSET	-5.9610	-8.3072	-2.1979
									CHANNELS 3 Zrotation Yrotation Xrotation
									JOINT RightHandPinky2
									{
										OFFSET	-0.8393	-2.4400	0.0631
										CHANNELS 3 Zrotation Yrotation Xrotation
										JOINT RightHandPinky3
										{
											OFFSET	0.1765	-1.4898	0.2233
											CHANNELS 3 Zrotation Yrotation Xrotation
											End Site
											{
												OFFSET 0.5937 -1.6063 0.3463
											}
										}
									}
								}
							}
						}
					}
				}
			}
		}
	}
	JOINT LeftUpLeg
	{
		OFFSET	9.7636	-5.6061	2.1290
		CHANNELS 3 Zrotation Yrotation Xrotation
		JOINT LeftLeg
		{
			OFFSET	2.2149	-46.3908	-0.4602
			CHANNELS 3 Zrotation Yrotation Xrotation
			JOINT LeftFoot
			{
				OFFSET	1.9298	-48.3099	-3.4678
				CHANNELS 3 Zrotation Yrotation Xrotation
				JOINT LeftToeBase
				{
					OFFSET	1.8478	-11.6774	15.5178
					CHANNELS 3 Zrotation Yrotation Xrotation
					End Site
					{
						OFFSET 0.7268 -0.2284 7.3340
					}
				}
			}
		}
	}
	JOINT RightUpLeg
	{
		OFFSET	-9.8235	-5.6061	2.6456
		CHANNELS 3 Zrotation Yrotation Xrotation
		JOINT RightLeg
		{
			OFFSET	-2.2149	-46.3908	-1.3921
			CHANNELS 3 Zrotation Yrotation Xrotation
			JOINT RightFoot
			{
				OFFSET	-1.9298	-48.3100	-2.8996
				CHANNELS 3 Zrotation Yrotation Xrotation
				JOINT RightToeBase
				{
					OFFSET	-1.8478	-11.6768	15.3818
					CHANNELS 3 Zrotation Yrotation Xrotation
					End Site
					{
						OFFSET -0.7268 -0.2281 7.3632
					}
				}
			}
		}
	}
}
MOTION
Frames: 1
Frame Time: 0.0333333
0.0300 112.5591 -2.4077 -0.0010 0.0002 -0.0002 0.0088 -0.0003 0.0002 0.0000 -0.0000 0.0000 0.0000 -0.0000 -0.0000 0.0000 -0.0000 -0.0000 -0.0000 -0.0000 -0.0000 11.5246 0.0004 0.0001 47.1572 2.2942 3.6967 -3.2478 6.1558 9.5141 -3.0135 -8.7756 -0.8982 -13.2641 -12.2797 -3.8886 -0.7348 -11.0869 -16.4567 0.4743 -4.6998 -7.5227 8.4320 3.4949 2.5140 27.0247 5.1887 -4.9130 6.6846 1.0401 -0.5081 9.6395 1.4777 -0.6811 33.1348 4.8010 -3.7885 17.1391 -0.0959 7.8849 18.6502 1.0218 -4.3737 30.0762 3.8396 8.8889 7.1776 1.8651 -0.1949 20.5769 -0.7575 -8.2410 25.6347 1.4099 7.2776 13.1586 1.1532 3.5814 -11.5511 -0.0003 0.0001 -47.1494 -2.2943 3.6969 3.2475 -6.1560 9.5140 3.0138 8.7758 -0.8980 13.2641 12.2795 -3.8882 0.7350 11.0881 -16.4575 -0.4751 4.7007 -7.5233 -8.4319 -3.4941 2.5134 -27.0242 -5.1873 -4.9118 -6.6873 -1.0404 -0.5082 -9.6386 -1.4770 -0.6821 -33.1353 -4.8022 -3.7882 -17.1400 0.0947 7.8851 -18.6501 -1.0208 -4.3738 -30.0770 -3.8368 8.8888 -7.1775 -1.8649 -0.1958 -20.5769 0.7569 -8.2414 -25.6328 -1.4111 7.2757 -13.1595 -1.1520 3.5849 -2.5014 0.0488 -1.4691 0.0096 0.1017 1.4196 2.5032 -0.1531 0.0431 -0.0000 -0.0000 0.0000 2.5027 -0.0499 -1.7424 -0.0085 -0.0995 2.1372 -2.4894 0.1322 -0.4007 0.0000 0.0000 0.0000 
